<svg width="49" height="20" viewBox="0 0 49 20" fill="none" xmlns="http://www.w3.org/2000/svg">
<path d="M21 8H25V9H21V8Z" fill="black"/>
<path fill-rule="evenodd" clip-rule="evenodd" d="M48.2992 5.00781L42.7517 4.19951C41.7402 3.56548 40.6904 2.99791 39.6081 2.49984C36.0339 0.847985 32.1546 -0.00439073 28.2304 1.70077e-05H27.2667C22.6358 0.00340748 18.0789 1.18907 14.0115 3.44885L11.2119 5.00713C7.93472 5.04477 4.72069 5.9341 1.87352 7.59003C0.716444 8.26711 0.00199381 9.5233 0 10.8839V15.8317C0 16.2921 0.365533 16.6651 0.816799 16.6651H3.55896C4.45086 19.2612 7.23655 20.6283 9.78099 19.7182C11.1816 19.2175 12.2826 18.0938 12.7734 16.6651H34.5923C35.4842 19.2612 38.2699 20.6283 40.8144 19.7182C42.2147 19.2175 43.3159 18.0938 43.8068 16.6651H44.0998C44.2039 16.6651 44.3069 16.6451 44.4036 16.6057L47.0487 15.5228C48.2304 15.0454 49.0043 13.8784 49 12.5822V5.83272C49 5.4184 48.7012 5.0668 48.2992 5.00781ZM11.3671 15.6652C11.0059 17.4686 9.28021 18.6319 7.51269 18.2634C5.74484 17.8948 4.60471 16.1341 4.96593 14.3304C5.32747 12.527 7.05312 11.3637 8.82063 11.7322C10.3416 12.0492 11.4335 13.4146 11.4332 14.9986C11.4332 15.2224 11.4109 15.4459 11.3671 15.6652ZM13.0665 14.9986H26.1333V6.66611H11.4332C8.36472 6.66713 5.3494 7.48424 2.68434 9.03676C2.03502 9.41582 1.63426 10.1207 1.63327 10.8839V14.9986H3.26653C3.26653 12.2374 5.46039 9.99899 8.16666 9.99899C10.8729 9.99899 13.0665 12.2374 13.0665 14.9986ZM26.1333 4.99967H14.6363L14.7938 4.91186C18.2853 2.97587 22.1636 1.87836 26.1333 1.70307V4.99967ZM28.2288 1.66646H27.7665V4.99967H36.412L37.8379 3.5448C34.7811 2.30014 31.5199 1.66273 28.2288 1.66646ZM42.4005 15.6652C42.0392 17.4686 40.3136 18.6319 38.5457 18.2634C36.7782 17.8948 35.6381 16.1341 35.9993 14.3304C36.3605 12.527 38.0865 11.3637 39.854 11.7322C41.375 12.0492 42.4669 13.4146 42.4666 14.9986C42.4666 15.2224 42.4443 15.4459 42.4005 15.6652ZM44.9166 7.49916H47.3667V6.5549L42.3506 5.82425C42.238 5.80763 42.1303 5.76728 42.0339 5.70592C41.1982 5.17496 40.3339 4.69249 39.445 4.26088L37.3272 6.42165C37.1743 6.57796 36.9666 6.66577 36.75 6.66577H27.7669V14.9976H34.3026C34.3052 12.2374 36.4974 10.0007 39.2027 9.99797C39.3742 9.99797 39.5373 10.0071 39.7008 10.0237C39.7361 10.0271 39.7705 10.0331 39.8051 10.0392C39.8297 10.0435 39.8544 10.0478 39.8796 10.0512C39.9083 10.0555 39.9372 10.0595 39.966 10.0635C40.0394 10.0737 40.1129 10.0839 40.185 10.099C40.2208 10.1065 40.2554 10.1163 40.2902 10.126C40.3164 10.1334 40.3427 10.1407 40.3694 10.1472C40.3946 10.1535 40.4197 10.1597 40.4449 10.1658C40.5148 10.1829 40.5845 10.2 40.6529 10.2214C40.6966 10.2355 40.7338 10.25 40.7758 10.2663C40.8006 10.2759 40.8269 10.2862 40.8572 10.2974C40.8796 10.3056 40.9029 10.3139 40.9264 10.3223C40.9885 10.3444 41.0518 10.367 41.1021 10.3889C41.148 10.4086 41.1891 10.4294 41.2334 10.4519C41.2563 10.4634 41.28 10.4754 41.3055 10.4879C41.3272 10.4985 41.3496 10.5092 41.372 10.5199C41.4269 10.5461 41.4822 10.5725 41.5292 10.5981C41.5953 10.6337 41.6524 10.6703 41.7229 10.7171C41.7578 10.7404 41.7936 10.7618 41.8288 10.7828C41.8642 10.804 41.8991 10.8248 41.9319 10.847C41.9789 10.879 42.0243 10.9144 42.0693 10.9494C42.0867 10.963 42.104 10.9765 42.1213 10.9897C42.1422 11.0058 42.1633 11.0212 42.1844 11.0366C42.2257 11.0668 42.2672 11.0971 42.3081 11.1328C42.345 11.1651 42.3814 11.1997 42.4167 11.2334C42.4408 11.2563 42.4643 11.2787 42.4872 11.2996C42.504 11.315 42.5207 11.3299 42.5374 11.3449C42.5766 11.3798 42.6157 11.4147 42.6553 11.4556C42.6839 11.4852 42.7125 11.518 42.7404 11.5501C42.7673 11.5811 42.7936 11.6113 42.8185 11.6369L42.8229 11.6415C42.8722 11.6924 42.9197 11.7415 42.9704 11.8038C43.0122 11.8551 43.0531 11.9119 43.0909 11.9643C43.1002 11.9772 43.1093 11.9899 43.1182 12.0021C43.1346 12.0246 43.1508 12.0461 43.167 12.0677C43.1951 12.1051 43.2234 12.1427 43.2531 12.1862C43.2997 12.2544 43.3445 12.3303 43.3811 12.3971C43.3982 12.4279 43.4167 12.4576 43.4354 12.4877C43.457 12.5224 43.479 12.5578 43.4997 12.5961C43.525 12.6435 43.5483 12.6936 43.5711 12.7426C43.5827 12.7676 43.5942 12.7923 43.6057 12.8162C43.6159 12.8373 43.6265 12.8582 43.6371 12.8791C43.662 12.9283 43.687 12.9775 43.7071 13.0301C43.7228 13.0714 43.7374 13.1137 43.7521 13.1559C43.7642 13.1906 43.7762 13.2252 43.7888 13.2593C43.7968 13.2813 43.8049 13.3031 43.8131 13.3249C43.8331 13.3785 43.853 13.4319 43.8702 13.4868C43.8857 13.5357 43.8979 13.5855 43.9101 13.6354C43.9173 13.6648 43.9245 13.6942 43.9324 13.7235C43.9366 13.7394 43.941 13.7556 43.9455 13.7719C43.963 13.8363 43.9808 13.9022 43.9938 13.9628C44.0049 14.0143 44.0129 14.0694 44.0211 14.1256C44.0249 14.152 44.0288 14.1786 44.0331 14.2053C44.0368 14.2294 44.0409 14.2536 44.0449 14.2778C44.0548 14.3368 44.0647 14.396 44.0706 14.4551C44.0756 14.5074 44.0781 14.5622 44.0805 14.6148C44.082 14.646 44.0834 14.6764 44.0852 14.705C44.0869 14.7301 44.089 14.7551 44.0911 14.78C44.0955 14.8314 44.0998 14.8826 44.0998 14.9342L46.4422 13.9744C47.0018 13.7489 47.3687 13.1962 47.3667 12.5822V9.16594H44.9166V7.49916Z" fill="black"/>
</svg>
