<svg width="9" height="7" viewBox="0 0 9 7" fill="none" xmlns="http://www.w3.org/2000/svg">
<path d="M0.103846 3.8459C0.0346154 3.77667 0 3.67282 0 3.60359C0 3.53436 0.0346154 3.43052 0.103846 3.36128L0.588462 2.87667C0.726923 2.73821 0.934615 2.73821 1.07308 2.87667L1.10769 2.91128L3.01154 4.95359C3.08077 5.02282 3.18462 5.02282 3.25385 4.95359L7.89231 0.142054H7.92692C8.06538 0.00359263 8.27308 0.00359263 8.41154 0.142054L8.89615 0.626669C9.03462 0.765131 9.03462 0.972823 8.89615 1.11128L3.35769 6.85744C3.28846 6.92667 3.21923 6.96128 3.11538 6.96128C3.01154 6.96128 2.94231 6.92667 2.87308 6.85744L0.173077 3.94975L0.103846 3.8459Z" fill="white"/>
</svg>
