<svg width="47" height="46" viewBox="0 0 47 46" fill="none" xmlns="http://www.w3.org/2000/svg">
<path d="M44.1561 19H34.8453C34.3729 19 33.991 19.3893 33.991 19.871C33.991 20.3526 34.3729 20.7419 34.8453 20.7419H42.621L45.0975 44.2581H1.93751L4.84463 20.7419H12.634C13.1064 20.7419 13.4882 20.3526 13.4882 19.871C13.4882 19.3893 13.1064 19 12.634 19H3.33768L0 46H47L44.1561 19Z" fill="black"/>
<path d="M22.0804 32.8328C21.9575 32.9081 21.8263 32.9746 21.7084 33.0533C21.5246 33.1761 21.3449 33.305 21.1685 33.4382C20.7966 33.721 20.7164 34.2623 20.9888 34.6472C21.1526 34.8781 21.4067 35 21.6641 35C21.8355 35 22.0085 34.9455 22.1581 34.8331C22.3068 34.7198 22.4581 34.6108 22.6161 34.5053C22.8844 34.3255 23.1694 34.1568 23.4635 34.0029C23.8547 33.7979 24.0135 33.3188 23.8497 32.9055C23.8564 32.8985 23.8647 32.8934 23.8706 32.8864C25.3825 31.2295 30.4773 25.0203 32.5868 14.6756C33.0147 12.5776 33.1108 10.5643 32.8726 8.69206C32.1538 3.00603 28.7397 0 22.9997 0C17.2613 0 13.8472 3.00603 13.1268 8.69206C12.8894 10.5652 12.9855 12.5784 13.4135 14.6756C15.502 24.9199 20.5166 31.105 22.0804 32.8328Z" fill="black"/>
<path d="M14.7842 8.91778C15.3969 4.08185 18.0847 1.73047 23.0007 1.73047C27.9175 1.73047 30.6045 4.08185 31.2162 8.91778C31.4294 10.5955 31.3399 12.4142 30.9521 14.3202C29.0558 23.6193 24.5343 29.5198 23.0007 31.3099C21.4654 29.5181 16.9447 23.615 15.0492 14.3202C14.6606 12.4142 14.572 10.5964 14.7842 8.91778Z" fill="white"/>
<path d="M23 18C26.3087 18 29 14.8602 29 11C29 7.1398 26.3087 4 23 4C19.6913 4 17 7.1398 17 11C17 14.8602 19.6913 18 23 18Z" fill="black"/>
<path d="M23 5.90674C25.407 5.90674 27.3665 8.19179 27.3665 11.0009C27.3665 13.8101 25.4078 16.0951 23 16.0951C20.5922 16.0951 18.6335 13.8101 18.6335 11.0009C18.6335 8.19179 20.593 5.90674 23 5.90674Z" fill="white"/>
<path d="M27.7967 31.4514C27.2529 31.5983 26.9065 32.2838 27.0223 32.9808C27.123 33.5864 27.5409 34 28.0062 34C28.0757 34 28.1472 33.991 28.2177 33.9717C28.8078 33.8119 29.4472 33.6766 30.1169 33.5684C30.6688 33.482 31.0615 32.8378 30.992 32.1317C30.9236 31.4244 30.4251 30.9141 29.8692 31.012C29.1411 31.1267 28.4432 31.2749 27.7967 31.4514Z" fill="black"/>
<path d="M32.001 31.5407C32.023 31.7984 32.4672 32 32.9994 32C33.0144 32 33.0285 32 33.0435 31.9995L35.0454 31.9597C35.5967 31.9477 36.0249 31.7231 35.9989 31.4586C35.9739 31.1932 35.4596 30.9863 34.9544 31.0007L32.9574 31.0405C32.4052 31.0516 31.977 31.2752 32.001 31.5407Z" fill="black"/>
<path d="M18.6787 37.1914C18.2548 37.5613 17.8169 37.9169 17.3756 38.2468C16.9938 38.5337 16.885 39.1239 17.1332 39.5662C17.2907 39.8475 17.5563 40 17.8259 40C17.9801 40 18.1352 39.9504 18.2746 39.8465C18.7471 39.4919 19.218 39.1105 19.6724 38.7139C20.0353 38.3965 20.1078 37.7987 19.834 37.3783C19.5594 36.9617 19.044 36.874 18.6787 37.1914Z" fill="black"/>
<path d="M37.6796 30.2849C37.4148 30.5417 37.0709 30.728 36.6251 30.8548C36.2013 30.9751 35.9287 31.5493 36.0164 32.1354C36.0932 32.6479 36.4191 33 36.7834 33C36.8359 33 36.8892 32.9924 36.9424 32.9772C37.6021 32.7887 38.1379 32.4875 38.5845 32.0531L38.6895 31.9469C39.0342 31.585 39.1023 30.9057 38.8414 30.429C38.5798 29.9523 38.0894 29.8591 37.7439 30.2188L37.6796 30.2849Z" fill="black"/>
<path d="M5.98398 38.2679C6.04994 37.7327 5.90619 37.1815 5.66372 37.0369C5.42307 36.8873 5.1715 37.2066 5.10599 37.7438C5.04868 38.2097 5.01456 38.6856 5.00364 39.1545C5.00136 39.27 5 39.3864 5 39.5089C5.00045 39.7057 5.00455 39.9025 5.01319 40.0983C5.0373 40.6154 5.23474 41 5.46538 41C5.48039 41 5.49586 40.998 5.51223 40.995C5.76198 40.9377 5.94395 40.4457 5.91893 39.8935C5.91256 39.762 5.91028 39.6284 5.90983 39.5019C5.90983 39.4186 5.91119 39.3352 5.91301 39.2529C5.92029 38.9276 5.94395 38.5952 5.98398 38.2679Z" fill="black"/>
<path d="M39.1296 23.0227C38.3317 22.9743 37.5177 23.004 36.7319 23.1052C36.1973 23.1732 35.8867 23.4254 36.0385 23.6675C36.1631 23.8687 36.5661 24 37.0042 24C37.0957 24 37.1871 23.9945 37.2775 23.9827C37.8001 23.9161 38.3377 23.8951 38.8603 23.927C39.4251 23.959 39.9175 23.7852 39.9908 23.5362C40.0652 23.2858 39.6793 23.0564 39.1296 23.0227Z" fill="black"/>
<path d="M40.0419 28.6927C39.9675 29.2247 40.1025 29.791 40.3428 29.9546C40.388 29.9859 40.4327 30 40.4774 30C40.6726 30 40.8527 29.7224 40.9129 29.2883C40.958 28.9673 40.9859 28.6412 40.9964 28.3162C40.9986 28.2324 41 28.1476 41 28.0638C41 27.5913 40.9608 27.1179 40.8837 26.6586C40.7961 26.1346 40.5321 25.8702 40.2977 26.063C40.061 26.2568 39.9411 26.8383 40.0286 27.3602C40.0678 27.5944 40.0879 27.8316 40.0879 28.0628L40.0865 28.1809C40.0811 28.3485 40.0665 28.516 40.0419 28.6927Z" fill="black"/>
<path d="M14.8862 39.1027C14.4282 39.3987 13.9616 39.6731 13.4998 39.9196C13.0973 40.1327 12.8972 40.7558 13.0527 41.3112C13.1723 41.7374 13.4677 42 13.7819 42C13.8757 42 13.971 41.9774 14.0632 41.9279C14.5595 41.6642 15.0597 41.3693 15.5505 41.0529C15.9412 40.8011 16.1092 40.1596 15.9256 39.6215C15.7435 39.0823 15.2793 38.8487 14.8862 39.1027Z" fill="black"/>
<path d="M9.02013 35C9.18411 35 9.35115 34.9517 9.50699 34.8489C9.80032 34.6544 10.113 34.5331 10.4349 34.4909C10.5724 34.4711 10.7129 34.4711 10.8484 34.4934C11.4218 34.5838 11.9178 34.1057 11.9912 33.4282C12.0645 32.7495 11.6724 32.1277 11.1152 32.0386C10.8117 31.9903 10.5031 31.9878 10.2077 32.0286C9.6231 32.1067 9.05884 32.3247 8.53124 32.6739C8.03725 33.0022 7.85493 33.7528 8.12484 34.3535C8.31022 34.7671 8.65957 35 9.02013 35Z" fill="black"/>
<path d="M8.75115 41.9201C8.96786 41.9463 9.18859 41.9659 9.40731 41.978C9.66416 41.9925 9.921 42 10.1789 42C10.4929 42 10.8079 41.9897 11.122 41.971C11.6718 41.9388 12.0621 41.7051 11.9918 41.449C11.9216 41.1929 11.423 41.0125 10.8711 41.0438C10.4658 41.0681 10.0565 41.0738 9.65111 41.0509C9.51868 41.0429 9.38624 41.0312 9.25581 41.0158C8.71904 40.949 8.17224 41.1004 8.03178 41.3504C7.89433 41.6004 8.21538 41.8556 8.75115 41.9201Z" fill="black"/>
</svg>
