<svg width="50" height="50" viewBox="0 0 50 50" fill="none" xmlns="http://www.w3.org/2000/svg">
<path d="M16.5 0C9.59646 0 4 5.2912 4 11.8182V20.4848C4.00365 23.5293 6.61323 25.9966 9.83333 26H10.6667V24.4242H9.83333C7.53333 24.4217 5.66937 22.6594 5.66667 20.4848V11.8182C5.66667 6.16141 10.5169 1.57576 16.5 1.57576C22.4831 1.57576 27.3333 6.16141 27.3333 11.8182V20.4848C27.3306 22.6594 25.4667 24.4217 23.1667 24.4242H22.3333V26H23.1667C26.3868 25.9966 28.9964 23.5293 29 20.4848V11.8182C29 5.2912 23.4035 0 16.5 0Z" fill="black"/>
<path d="M7.26379 38.9146L8 37.9233L6.29895 37L5.56274 37.9922C3.33609 40.9928 3.50139 44.8565 5.97868 47.7099V50H7.99295V47.4162C7.99308 47.2206 7.91527 47.0307 7.77239 46.8779C5.63122 44.5889 5.4269 41.3895 7.26379 38.9146Z" fill="black"/>
<path d="M45.8696 0H35.1304C32.8504 0.00273 31.0027 1.8816 31 4.2V12.6C31.0027 14.9184 32.8504 16.7973 35.1304 16.8H36.7826V20.16C36.7825 20.4997 36.9837 20.8061 37.2923 20.9362C37.3926 20.9787 37.5001 21.0003 37.6087 21C37.8278 21 38.0378 20.9114 38.1927 20.7539L42.0811 16.8H45.8696C48.1496 16.7973 49.9973 14.9184 50 12.6V4.2C49.9973 1.8816 48.1496 0.00273 45.8696 0Z" fill="black"/>
<path d="M48.3478 12.6C48.3478 13.9918 47.2382 15.12 45.8695 15.12H41.7391C41.5199 15.12 41.3099 15.2086 41.155 15.3661L38.4347 18.1322V15.96C38.4347 15.4961 38.0648 15.12 37.6086 15.12H35.1304C33.7616 15.12 32.6521 13.9918 32.6521 12.6V4.19999C32.6521 2.80822 33.7616 1.67999 35.1304 1.67999H45.8695C47.2382 1.67999 48.3478 2.80822 48.3478 4.19999V12.6Z" fill="white"/>
<rect x="35" y="4" width="6" height="1" fill="black"/>
<rect x="43" y="4" width="4" height="1" fill="black"/>
<rect x="35" y="7" width="10" height="1" fill="black"/>
<rect x="35" y="10" width="6" height="1" fill="black"/>
<path d="M27.4373 37.9922L26.701 37L25 37.9233L25.7362 38.9155C27.5732 41.39 27.3689 44.5892 25.2276 46.8779C25.0847 47.0307 25.0069 47.2206 25.007 47.4162V50H27.0213V47.7099C29.4986 44.8565 29.6639 40.9928 27.4373 37.9922Z" fill="black"/>
<path d="M49.1667 28.1935H41.6667C38.54 28.1972 35.9723 30.6812 35.845 33.8255L33.3333 38.3763V34.9032C33.3297 31.6623 30.7201 29.0359 27.5 29.0322H24.4542L24.4317 29.0146L24.4167 29.0322H22.5C21.5795 29.0322 20.8333 28.2813 20.8333 27.3548V25.3813C23.4082 23.8851 24.996 21.1214 25 18.129V11.4193C24.9988 10.0297 24.6552 8.66205 24 7.43879C23.7901 7.04963 23.3157 6.89163 22.9167 7.07814L8.81167 13.7576C8.51958 13.896 8.33323 14.1918 8.33333 14.5167V18.129C8.33729 21.1214 9.9251 23.8851 12.5 25.3813V27.3548C12.5 28.2813 11.7539 29.0322 10.8333 29.0322H5.83333C2.61323 29.0359 0.00364583 31.6623 0 34.9032V50H1.66667V34.9032C1.66937 32.5884 3.53333 30.7124 5.83333 30.7097H8.485L15.9892 41.2623C16.1433 41.4792 16.3908 41.6093 16.6558 41.6129H16.6667C16.929 41.6129 17.1759 41.4886 17.3333 41.2774L25.25 30.7097H27.5C29.8 30.7124 31.664 32.5884 31.6667 34.9032V41.6129C31.6671 42.0761 32.0405 42.4513 32.5007 42.4509C32.803 42.4506 33.0815 42.2856 33.2283 42.0197L37.1567 34.9032H41.9342L33.8092 50H35.705L43.8333 34.9032H44.1667C47.3868 34.8995 49.9964 32.2731 50 29.0322C50 28.5691 49.6269 28.1935 49.1667 28.1935Z" fill="black"/>
<path d="M10 18.129V15.0493L22.8675 8.9552C23.1753 9.73981 23.3333 10.5758 23.3333 11.4193V18.129C23.3333 21.8347 20.3485 24.8387 16.6667 24.8387C12.9848 24.8387 10 21.8347 10 18.129Z" fill="white"/>
<path d="M16.6842 39.3585L14.1125 35.7419H19.3925L16.6842 39.3585Z" fill="white"/>
<path d="M20.6533 34.0645H12.9166L10.5308 30.7097H10.8333C12.6742 30.7097 14.1666 29.2076 14.1666 27.3548V26.1295C15.7939 26.6449 17.5393 26.6449 19.1666 26.1295V27.3548C19.1666 29.2076 20.659 30.7097 22.4999 30.7097H23.1666L20.6533 34.0645Z" fill="white"/>
<path d="M44.1666 33.2258H37.5833C37.9817 31.2744 39.6872 29.8732 41.6666 29.871H48.2499C47.8515 31.8223 46.146 33.2236 44.1666 33.2258Z" fill="#DADADA"/>
</svg>
