<svg width="45" height="44" viewBox="0 0 45 44" fill="none" xmlns="http://www.w3.org/2000/svg">
<path d="M44.7901 28.9474L30.4784 15.543C31.3699 13.8297 31.7769 11.9109 31.658 9.96004C31.6357 9.59457 31.3237 9.31559 30.9614 9.33899C30.5989 9.36141 30.3233 9.67592 30.3455 10.0412C30.4592 11.9068 30.0241 13.7382 29.0871 15.3376C28.9298 15.6059 28.9792 15.9484 29.2056 16.1603L43.6852 29.7218V31.7422L41.7393 31.9183L38.006 28.4216L38.0352 26.5916C38.0405 26.2582 37.8984 25.9436 37.6453 25.7288C37.3924 25.514 37.0609 25.4263 36.7359 25.4884L35.1893 25.7836L33.2933 24.0077L33.3558 22.0779C33.3671 21.7294 33.2194 21.4036 32.951 21.184C32.6825 20.9644 32.3361 20.8859 32.0002 20.9688L30.4557 21.3499L27.2181 18.3176C26.9916 18.1056 26.6493 18.0811 26.3956 18.259C22.8653 20.7323 18.0139 20.3834 14.8597 17.4291C11.434 14.2206 10.9787 8.93647 13.6426 5.19192C14.508 5.38493 15.3014 5.8018 15.9492 6.39325C15.2037 7.53185 15.3603 9.08376 16.3839 10.0423C16.9261 10.5501 17.615 10.8011 18.3023 10.8011C19.0595 10.8011 19.815 10.4963 20.3698 9.8941C21.4282 8.74523 21.3623 6.94226 20.2228 5.875C19.6708 5.35799 18.9517 5.08885 18.1993 5.11677C17.7392 5.13387 17.3003 5.26131 16.9112 5.48445C16.2433 4.8533 15.4467 4.3728 14.5743 4.0785C16.2004 2.4174 18.3642 1.44674 20.7096 1.33624C23.1808 1.21997 25.5398 2.07276 27.3516 3.73802C28.0142 4.3471 28.5824 5.04384 29.0406 5.80916C29.2283 6.1227 29.6326 6.2231 29.9431 6.03408C30.254 5.84478 30.3538 5.4374 30.1662 5.12404C29.6424 4.24944 28.9936 3.45346 28.2373 2.75832C26.1657 0.85423 23.47 -0.120857 20.6481 0.0119847C17.8262 0.145003 15.2325 1.36902 13.3447 3.45878C13.2529 3.56033 13.1641 3.66375 13.0767 3.76815C12.8995 3.75326 12.7209 3.74493 12.5408 3.74493C9.0167 3.74493 6.14953 6.6359 6.14953 10.1893C6.14953 10.3213 6.15375 10.4527 6.16148 10.5833H3.82658C1.71668 10.5833 8.78906e-05 12.3141 8.78906e-05 14.4416V26.7888C8.78906e-05 27.1549 0.294434 27.4517 0.657598 27.4517C1.02076 27.4517 1.31511 27.1549 1.31511 26.7888V14.4417C1.31511 13.0453 2.44187 11.9092 3.82676 11.9092H6.3791C6.7377 13.2249 7.5056 14.3994 8.60414 15.2666C8.72446 15.3615 8.8672 15.4076 9.00896 15.4076C9.20417 15.4076 9.39744 15.3203 9.52717 15.1533C9.75103 14.865 9.70066 14.4485 9.41476 14.2228C8.64167 13.6125 8.07434 12.8109 7.75679 11.9094H10.6766C10.8672 13.4946 11.403 14.9951 12.2429 16.3214C12.2022 16.3168 12.1609 16.3142 12.1191 16.3142H4.91994C4.29627 16.3142 3.78896 16.8258 3.78896 17.4546V37.1292C3.78896 37.758 4.29636 38.2696 4.91994 38.2696H12.1189C12.7426 38.2696 13.2499 37.758 13.2499 37.1292V17.6641C13.475 17.9195 13.7134 18.1655 13.9648 18.4008C14.5056 18.9074 15.0963 19.3516 15.7239 19.7301V40.1417C15.7239 41.5381 14.5971 42.6742 13.2122 42.6742H3.82658C2.4416 42.6742 1.31493 41.5381 1.31493 40.1417V31.5619C1.31493 31.1958 1.02059 30.8989 0.657422 30.8989C0.294258 30.8989 0 31.1958 0 31.5619V40.1417C0 42.2692 1.71659 44 3.82649 44H13.2121C15.3221 44 17.0386 42.2692 17.0386 40.1417V20.4022C18.1169 20.8616 19.2699 21.1419 20.449 21.219C22.6456 21.3626 24.8449 20.8051 26.7007 19.643L29.6473 22.4027C29.9181 22.6566 30.2945 22.7552 30.6534 22.6665L32.0323 22.3262L31.9759 24.0657C31.9656 24.3855 32.0931 24.6938 32.3254 24.911L34.3757 26.8314C34.6297 27.0692 34.9845 27.1724 35.3251 27.1074L36.7162 26.8419L36.6898 28.4995C36.6848 28.8122 36.8124 29.1137 37.0397 29.3265L40.9161 32.957C41.1194 33.1474 41.3869 33.2523 41.6623 33.2523C41.6947 33.2523 41.7272 33.2509 41.7597 33.248L44.0024 33.045C44.5711 32.9935 45 32.5204 45 31.9447V29.4333C45.0001 29.2489 44.924 29.0729 44.7901 28.9474Z" fill="#0B0000"/>
<path d="M16.8668 7.50818C16.9996 7.72636 17.1176 7.95633 17.2187 8.19729C17.3602 8.53449 17.7459 8.69223 18.0802 8.54955C18.4147 8.40696 18.5711 8.01792 18.4296 7.68081C18.2573 7.27005 18.0455 6.88509 17.8013 6.52777C17.9432 6.47735 18.0933 6.44792 18.2479 6.44216C18.2669 6.44146 18.2859 6.4411 18.3048 6.4411C18.6859 6.4411 19.0473 6.58405 19.328 6.84698C19.6227 7.12294 19.7931 7.49816 19.8079 7.90333C19.8228 8.30859 19.6802 8.69524 19.4064 8.99239C18.8413 9.60573 17.8869 9.64108 17.2788 9.07152C16.9841 8.79556 16.8137 8.42034 16.7989 8.01517C16.7925 7.84059 16.817 7.67017 16.8668 7.50818Z" fill="white"/>
<path d="M10.5984 10.5836H7.48107C7.47123 10.453 7.46446 10.3218 7.46446 10.1895C7.46446 7.50625 9.52321 5.30005 12.1315 5.08905C11.1335 6.73552 10.6022 8.62375 10.5984 10.5836Z" fill="white"/>
<path d="M11.9351 36.9437H5.10381V27.9545H11.935V36.9437H11.9351Z" fill="white"/>
<path d="M11.9351 26.6288H5.10381V17.6398H11.935V26.6288H11.9351Z" fill="white"/>
</svg>
