<svg width="44" height="44" viewBox="0 0 44 44" fill="none" xmlns="http://www.w3.org/2000/svg">
<path d="M42.0994 9.46672L41.0319 9.13336C40.765 9.06669 40.4981 9.00002 40.1646 9.00002C38.9637 9.00002 37.8962 9.79999 37.4958 10.9333L36.8954 12.7333V11.3999V11.3334C36.8954 11.1333 36.762 10.9333 36.6285 10.8L25.6867 0.200016C25.5532 0.066672 25.3531 0 25.2196 0H3.80291C3.40257 0 3.13576 0.266688 3.13576 0.666632V2.73329H0.667151C0.266807 2.73329 0 2.99998 0 3.39992V43.3334C0 43.7334 0.266896 44 0.667151 44H33.0924C33.4927 44 33.7596 43.7333 33.7596 43.3334V41.2667H36.2282C36.6285 41.2667 36.8953 41 36.8953 40.6001V31.6001L38.7634 29.0667L38.8301 28.8667L43.8341 12.9333C44.3679 11.4667 43.5673 9.93334 42.0994 9.46672Z" fill="black"/>
<path d="M25.8867 2.2666L34.6268 10.6667H25.8867V2.2666Z" fill="white"/>
<path d="M32.4252 42.6667H1.33423V4.06665H3.1356V40.6001C3.1356 41.0001 3.40249 41.2667 3.80275 41.2667H32.4251V42.6667H32.4252Z" fill="white"/>
<path d="M35.6276 39.9335H35.5609H4.46997V1.33337H24.5523V11.3334C24.5523 11.7334 24.8192 12 25.2194 12H35.6276V17.0001L32.4918 26.8667V27.0667L32.6252 35.5335C32.6252 35.8002 32.8254 36.0668 33.0923 36.1334C33.3592 36.2001 33.6927 36.1334 33.8262 35.8667L35.6276 33.4667V39.9335H35.6276Z" fill="white"/>
<path d="M33.893 33.4667L33.7595 27.9333L37.0955 29L33.893 33.4667Z" fill="white"/>
<path d="M42.6332 12.5334L37.8294 27.8001L33.9597 26.5334L38.7635 11.3334C39.0304 10.6 39.831 10.1333 40.5649 10.4L41.6323 10.7334C42.433 10.9333 42.9 11.8001 42.6332 12.5334Z" fill="white"/>
<path d="M9.6707 12H19.3293C19.7318 12 20 11.7377 20 11.3443V4.65571C20 4.26223 19.7317 4 19.3293 4H9.6707C9.26823 4 9 4.26232 9 4.65571V11.3443C9 11.6722 9.33539 12 9.6707 12Z" fill="black"/>
<path d="M10.3416 5.3114H18.6587V10.6885H10.3416V5.3114Z" fill="white"/>
<path d="M8.64812 17H28.3519C28.7408 17 29 16.8 29 16.5C29 16.2 28.7407 16 28.3519 16H8.64812C8.25919 16 8 16.2 8 16.5C7.99991 16.8 8.25919 17 8.64812 17Z" fill="black"/>
<path d="M8.64812 22H28.3519C28.7408 22 29 21.8 29 21.5C29 21.2 28.7407 21 28.3519 21H8.64812C8.25919 21 8 21.2 8 21.5C8 21.8 8.25919 22 8.64812 22Z" fill="black"/>
<path d="M8.64812 27H28.3519C28.7408 27 29 26.8 29 26.5C29 26.2 28.7407 26 28.3519 26H8.64812C8.25919 26 8 26.2 8 26.5C8 26.8 8.25919 27 8.64812 27Z" fill="black"/>
<path d="M29 31.5C29 31.2 28.7399 31 28.3499 31H8.65012C8.26 31 8 31.2 8 31.5C8 31.8 8.26008 32 8.65012 32H28.4149C28.7399 32 29 31.75 29 31.5Z" fill="black"/>
<path d="M30.4177 36H20.647C20.2588 36 20 36.2 20 36.5C20 36.8 20.2588 37 20.647 37H30.353C30.7412 37 31 36.8 31 36.5C31 36.2 30.7412 36 30.4177 36Z" fill="black"/>
</svg>
