<svg width="55" height="54" viewBox="0 0 55 54" fill="none" xmlns="http://www.w3.org/2000/svg">
<path d="M45.2354 29C44.8132 29 44.4708 29.4194 44.4708 29.9368C44.4708 30.5928 44.0353 31.1264 43.5 31.1264C42.9648 31.1264 42.5292 30.5928 42.5292 29.9368C42.5292 29.4193 42.1868 29 41.7646 29C41.3423 29 41 29.4194 41 29.9368C41 31.6259 42.1216 33 43.5 33C44.8784 33 46 31.6258 46 29.9368C46 29.4192 45.6577 29 45.2354 29Z" fill="black"/>
<path d="M52.8993 28.7037L50.6464 27.9807C50.3579 27.888 50.1305 27.6573 50.0382 27.3634C49.5634 25.851 48.8469 24.4312 47.9085 23.1432C47.4809 22.5561 47.0053 21.9955 46.4859 21.4619C46.8182 20.0011 46.9989 18.348 46.9755 16.9198C46.942 14.8766 46.5344 13.6783 45.7296 13.256C45.2962 13.0283 43.977 12.3365 36.837 15.6109C36.6679 15.6884 36.51 15.7839 36.3638 15.8932C35.8825 15.7636 35.3905 15.6437 34.8955 15.5361C34.8358 15.5231 34.7744 15.5116 34.7143 15.4989C35.2929 14.2326 35.6308 12.8574 35.6942 11.4377C35.714 10.9951 35.3721 10.6204 34.9304 10.6007C34.4898 10.5788 34.1146 10.9234 34.095 11.3659C33.9906 13.7003 33.0241 15.8967 31.3734 17.5504C30.3872 18.5385 29.2324 19.2562 28.0017 19.7082C25.8673 19.4082 23.6933 19.4082 21.5589 19.7082C20.3281 19.2562 19.1734 18.5385 18.1872 17.5504C16.4261 15.7861 15.4562 13.4404 15.4562 10.9452C15.4562 8.44994 16.4261 6.10427 18.1872 4.33996C19.9482 2.57554 22.2898 1.60385 24.7803 1.60385C27.2708 1.60385 29.6123 2.57554 31.3734 4.33996C32.0811 5.04896 32.6659 5.85804 33.1116 6.7445C33.3104 7.14011 33.7918 7.29938 34.1866 7.10007C34.5815 6.90098 34.7403 6.41873 34.5415 6.02323C34.0191 4.98374 33.3341 4.03594 32.5055 3.20576C30.4421 1.1385 27.6985 0 24.7804 0C21.8623 0 19.1187 1.1385 17.0553 3.20576C14.9918 5.27313 13.8554 8.02162 13.8554 10.9451C13.8554 13.8686 14.9918 16.6172 17.0553 18.6844C17.6505 19.2807 18.298 19.7935 18.9829 20.2232C18.9832 20.2232 18.9834 20.2231 18.9836 20.2231C18.4859 20.3526 17.992 20.4981 17.5035 20.6617C17.0843 20.8022 16.858 21.2564 16.9982 21.6766C17.1383 22.0966 17.5919 22.3232 18.0111 22.1829C22.3763 20.7209 27.1845 20.7209 31.5497 22.1829C31.6339 22.2111 31.7194 22.2244 31.8035 22.2244C32.1384 22.2244 32.4505 22.0122 32.5626 21.6766C32.7028 21.2565 32.4765 20.8022 32.0573 20.6617C31.5688 20.4981 31.0749 20.3525 30.5772 20.2231C30.5774 20.2231 30.5776 20.2232 30.5779 20.2232C31.2629 19.7935 31.9103 19.2807 32.5055 18.6844C33.0321 18.1569 33.4969 17.5808 33.9005 16.9685C34.1212 17.0115 34.3402 17.0565 34.556 17.1034C34.8435 17.1659 35.1296 17.2331 35.4132 17.3036C35.4043 17.3384 35.3952 17.3732 35.3878 17.4086C34.9974 19.2645 35.0228 20.9059 35.4631 22.287C35.8588 23.5284 36.5731 24.5341 37.5857 25.2763C38.7793 26.151 40.2203 26.5289 41.5255 26.5289C42.5079 26.5289 43.4136 26.3147 44.0787 25.9373C44.8311 25.5104 45.4615 24.6108 45.9604 23.2602C46.1911 23.5299 46.4097 23.8061 46.6157 24.089C47.4511 25.2355 48.0889 26.4992 48.5113 27.8447C48.7593 28.6349 49.3751 29.2567 50.1583 29.5082L52.4111 30.2312C53.0023 30.4209 53.3994 30.966 53.3994 31.5879V35.3303C53.3994 35.9521 53.0023 36.4972 52.4111 36.687L48.7815 37.8517C48.2007 38.0382 47.7093 38.438 47.3976 38.9776C45.9716 41.4466 43.7296 43.4898 40.7335 45.0504C40.3874 45.2309 40.1476 45.5536 40.0755 45.9361L38.9129 52.103C38.8808 52.2729 38.7322 52.3961 38.5596 52.3961H34.7798C34.6071 52.3961 34.4586 52.2728 34.4265 52.103L33.7826 48.6948C33.6558 48.0242 33.028 47.5788 32.3524 47.6814C30.7242 47.928 29.0464 48.053 27.366 48.053C26.1159 48.053 24.8817 47.9831 23.6976 47.8453C23.0429 47.7698 22.4329 48.217 22.3106 48.8646L21.6987 52.103C21.6666 52.2729 21.518 52.3961 21.3454 52.3961H17.5655C17.3929 52.3961 17.2443 52.2728 17.2118 52.1004L16.0924 46.2758C16.0204 45.9006 15.7851 45.5815 15.4466 45.4004C10.3394 42.6689 7.63984 38.1054 7.63984 32.2036C7.63984 29.2216 8.29104 26.5849 9.57526 24.3662C10.7737 22.2957 12.524 20.5838 14.7776 19.2778C15.1602 19.056 15.291 18.5655 15.0697 18.1821C14.8484 17.7987 14.3588 17.668 13.976 17.8894C9.6062 20.4219 6.97061 24.3289 6.24497 29.2913V29.2912C6.16795 29.2842 6.09082 29.2775 6.01401 29.2695C6.02798 28.7341 5.9313 28.1939 5.72075 27.6696C5.25637 26.5131 4.30246 25.6784 3.29044 25.5431C2.49294 25.4361 1.734 25.7753 1.20731 26.4725C0.443652 27.4835 0.568154 28.2835 0.806953 28.7766C1.21011 29.6089 2.24641 30.1975 3.96612 30.5676C3.91886 30.6386 3.86687 30.7098 3.80993 30.7814C2.79383 32.0581 1.59672 32.3403 0.819414 32.3669C0.364375 32.3823 0 32.7483 0 33.2045V33.2084C0 33.6583 0.354385 34.0253 0.803086 34.0459C0.860557 34.0486 0.920605 34.05 0.983125 34.05C1.96668 34.05 3.54524 33.6865 5.06183 31.7814C5.30127 31.4807 5.49635 31.1634 5.64631 30.8356C5.79734 30.8527 5.94247 30.8674 6.08147 30.8803C6.08147 30.8799 6.08147 30.8797 6.08158 30.8794C6.0543 31.314 6.03915 31.7549 6.03915 32.2036C6.03915 35.5428 6.83375 38.52 8.40071 41.0531C9.84554 43.3884 11.9142 45.3006 14.5512 46.7386L15.6393 52.4011C15.8143 53.3275 16.6244 53.9999 17.5655 53.9999H21.3454C22.2865 53.9999 23.0966 53.3275 23.2716 52.4011L23.8248 49.473C24.9738 49.5949 26.1634 49.6567 27.3659 49.6567C29.0159 49.6567 30.664 49.5416 32.2702 49.3143L32.8534 52.4013C33.0285 53.3277 33.8385 54 34.7796 54H38.5594C39.5005 54 40.3106 53.3276 40.4857 52.4009L41.6176 46.3967C44.8153 44.7027 47.2257 42.4773 48.7831 39.7808C48.8953 39.5864 49.0682 39.4439 49.2697 39.3792L52.8993 38.2144C54.1558 37.8109 55 36.652 55 35.3301V31.5876C55 30.2659 54.1558 29.1069 52.8993 28.7037Z" fill="black"/>
<path d="M45.2545 19.1732C44.9464 21.8127 44.12 24.0705 43.2896 24.5417C42.3458 25.0773 40.1668 25.1807 38.5307 23.9818C36.8928 22.7814 36.3476 20.6227 36.954 17.7392C36.954 17.7391 36.954 17.7391 36.954 17.7391C37.0149 17.4495 37.2203 17.1989 37.5033 17.0692C41.5106 15.2315 43.8209 14.6304 44.6792 14.6304C44.8088 14.6304 44.9052 14.6441 44.9695 14.6693C45.2273 14.9445 45.5655 16.5094 45.2545 19.1732Z" fill="white"/>
<path d="M2.24737 28.0764C2.16455 27.9052 2.36006 27.6044 2.48402 27.4402C2.6805 27.1802 2.8615 27.127 2.99825 27.127C3.02715 27.127 3.05411 27.1294 3.07882 27.1327C3.44684 27.1819 3.96247 27.5877 4.23564 28.2679C4.29999 28.4281 4.38356 28.6933 4.40311 29.0242C3.29506 28.7942 2.43418 28.4626 2.24737 28.0764Z" fill="white"/>
<path d="M25.568 10.0487V7.07819C26.5034 7.15138 26.8509 7.61963 27.1715 7.61963C27.5724 7.61963 27.7595 7.06359 27.7595 6.78552C27.7595 6.06839 26.4766 5.76113 25.568 5.73183V5.33656C25.568 5.16098 25.3674 5 25.167 5C24.9398 5 24.7795 5.16098 24.7795 5.33656V5.76091C23.51 5.9073 22.2405 6.63902 22.2405 8.48292C22.2405 10.3561 23.5768 10.883 24.7795 11.3512V14.7902C23.4164 14.6732 23.0556 13.6488 22.6146 13.6488C22.2806 13.6488 22 14.1317 22 14.483C22 15.2 23.1225 16.1805 24.7795 16.2098V16.2098V16.6634C24.7795 16.839 24.9399 17 25.167 17C25.3675 17 25.568 16.839 25.568 16.6634V16.1659C27.0112 15.9463 28 14.9512 28 13.1512C28 11.161 26.7305 10.517 25.568 10.0487Z" fill="black"/>
<path d="M24.8596 9.77078C24.1514 9.47812 23.5768 9.17085 23.5768 8.33675C23.5768 7.57573 24.1113 7.20987 24.8596 7.10748V9.77078V9.77078Z" fill="white"/>
<path d="M25.4877 14.7609V11.6732C26.1424 11.9804 26.6636 12.3902 26.6636 13.3121C26.6636 14.1464 26.2093 14.6147 25.4877 14.7609Z" fill="white"/>
</svg>
