<svg width="258" height="183" fill="none" xmlns="http://www.w3.org/2000/svg"><path fill="#E4E6ED" d="M0 0h3v3H0zM15 0h3v3h-3zM30 0h3v3h-3zM45 0h3v3h-3zM60 0h3v3h-3zM75 0h3v3h-3zM90 0h3v3h-3zM105 0h3v3h-3zM120 0h3v3h-3zM135 0h3v3h-3zM150 0h3v3h-3zM165 0h3v3h-3zM180 0h3v3h-3zM195 0h3v3h-3zM210 0h3v3h-3zM225 0h3v3h-3zM240 0h3v3h-3zM255 0h3v3h-3zM0 15h3v3H0zM15 15h3v3h-3zM30 15h3v3h-3zM45 15h3v3h-3zM60 15h3v3h-3zM75 15h3v3h-3zM90 15h3v3h-3zM105 15h3v3h-3zM120 15h3v3h-3zM135 15h3v3h-3zM150 15h3v3h-3zM165 15h3v3h-3zM180 15h3v3h-3zM195 15h3v3h-3zM210 15h3v3h-3zM225 15h3v3h-3zM240 15h3v3h-3zM255 15h3v3h-3zM0 30h3v3H0zM15 30h3v3h-3zM30 30h3v3h-3zM45 30h3v3h-3zM60 30h3v3h-3zM75 30h3v3h-3zM90 30h3v3h-3zM105 30h3v3h-3zM120 30h3v3h-3zM135 30h3v3h-3zM150 30h3v3h-3zM165 30h3v3h-3zM180 30h3v3h-3zM195 30h3v3h-3zM210 30h3v3h-3zM225 30h3v3h-3zM240 30h3v3h-3zM255 30h3v3h-3zM0 45h3v3H0zM15 45h3v3h-3zM30 45h3v3h-3zM45 45h3v3h-3zM60 45h3v3h-3zM75 45h3v3h-3zM90 45h3v3h-3zM105 45h3v3h-3zM120 45h3v3h-3zM135 45h3v3h-3zM150 45h3v3h-3zM165 45h3v3h-3zM180 45h3v3h-3zM195 45h3v3h-3zM210 45h3v3h-3zM225 45h3v3h-3zM240 45h3v3h-3zM255 45h3v3h-3zM0 60h3v3H0zM15 60h3v3h-3zM30 60h3v3h-3zM45 60h3v3h-3zM60 60h3v3h-3zM75 60h3v3h-3zM90 60h3v3h-3zM105 60h3v3h-3zM120 60h3v3h-3zM135 60h3v3h-3zM150 60h3v3h-3zM165 60h3v3h-3zM180 60h3v3h-3zM195 60h3v3h-3zM210 60h3v3h-3zM225 60h3v3h-3zM240 60h3v3h-3zM255 60h3v3h-3zM0 75h3v3H0zM15 75h3v3h-3zM30 75h3v3h-3zM45 75h3v3h-3zM60 75h3v3h-3zM75 75h3v3h-3zM90 75h3v3h-3zM105 75h3v3h-3zM120 75h3v3h-3zM135 75h3v3h-3zM150 75h3v3h-3zM165 75h3v3h-3zM180 75h3v3h-3zM195 75h3v3h-3zM210 75h3v3h-3zM225 75h3v3h-3zM240 75h3v3h-3zM255 75h3v3h-3zM0 90h3v3H0zM15 90h3v3h-3zM30 90h3v3h-3zM45 90h3v3h-3zM60 90h3v3h-3zM75 90h3v3h-3zM90 90h3v3h-3zM105 90h3v3h-3zM120 90h3v3h-3zM135 90h3v3h-3zM150 90h3v3h-3zM165 90h3v3h-3zM180 90h3v3h-3zM195 90h3v3h-3zM210 90h3v3h-3zM225 90h3v3h-3zM240 90h3v3h-3zM255 90h3v3h-3zM0 105h3v3H0zM15 105h3v3h-3zM30 105h3v3h-3zM45 105h3v3h-3zM60 105h3v3h-3zM75 105h3v3h-3zM90 105h3v3h-3zM105 105h3v3h-3zM120 105h3v3h-3zM135 105h3v3h-3zM150 105h3v3h-3zM165 105h3v3h-3zM180 105h3v3h-3zM195 105h3v3h-3zM210 105h3v3h-3zM225 105h3v3h-3zM240 105h3v3h-3zM255 105h3v3h-3zM0 120h3v3H0zM15 120h3v3h-3zM30 120h3v3h-3zM45 120h3v3h-3zM60 120h3v3h-3zM75 120h3v3h-3zM90 120h3v3h-3zM105 120h3v3h-3zM120 120h3v3h-3zM135 120h3v3h-3zM150 120h3v3h-3zM165 120h3v3h-3zM180 120h3v3h-3zM195 120h3v3h-3zM210 120h3v3h-3zM225 120h3v3h-3zM240 120h3v3h-3zM255 120h3v3h-3zM0 135h3v3H0zM15 135h3v3h-3zM30 135h3v3h-3zM45 135h3v3h-3zM60 135h3v3h-3zM75 135h3v3h-3zM90 135h3v3h-3zM105 135h3v3h-3zM120 135h3v3h-3zM135 135h3v3h-3zM150 135h3v3h-3zM165 135h3v3h-3zM180 135h3v3h-3zM195 135h3v3h-3zM210 135h3v3h-3zM225 135h3v3h-3zM240 135h3v3h-3zM255 135h3v3h-3zM0 150h3v3H0zM15 150h3v3h-3zM30 150h3v3h-3zM45 150h3v3h-3zM60 150h3v3h-3zM75 150h3v3h-3zM90 150h3v3h-3zM105 150h3v3h-3zM120 150h3v3h-3zM135 150h3v3h-3zM150 150h3v3h-3zM165 150h3v3h-3zM180 150h3v3h-3zM195 150h3v3h-3zM210 150h3v3h-3zM225 150h3v3h-3zM240 150h3v3h-3zM255 150h3v3h-3zM0 165h3v3H0zM15 165h3v3h-3zM30 165h3v3h-3zM45 165h3v3h-3zM60 165h3v3h-3zM75 165h3v3h-3zM90 165h3v3h-3zM105 165h3v3h-3zM120 165h3v3h-3zM135 165h3v3h-3zM150 165h3v3h-3zM165 165h3v3h-3zM180 165h3v3h-3zM195 165h3v3h-3zM210 165h3v3h-3zM225 165h3v3h-3zM240 165h3v3h-3zM255 165h3v3h-3zM0 180h3v3H0zM15 180h3v3h-3zM30 180h3v3h-3zM45 180h3v3h-3zM60 180h3v3h-3zM75 180h3v3h-3zM90 180h3v3h-3zM105 180h3v3h-3zM120 180h3v3h-3zM135 180h3v3h-3zM150 180h3v3h-3zM165 180h3v3h-3zM180 180h3v3h-3zM195 180h3v3h-3zM210 180h3v3h-3zM225 180h3v3h-3zM240 180h3v3h-3zM255 180h3v3h-3z"/></svg>